HIERARCHY
ROOT Hips
{
	OFFSET 0.000000 71.427986 0.000000
	CHANNELS 6 Xposition Yposition Zposition Xrotation Yrotation Zrotation
	JOINT Pelvis
	{
		OFFSET 0.000000 0.000000 0.000000
		CHANNELS 3 Xrotation Yrotation Zrotation
		JOINT LeftUpLeg
		{
			OFFSET 6.797100 -2.508499 -1.318700
			CHANNELS 3 Xrotation Yrotation Zrotation
			JOINT LeftLeg
			{
				OFFSET 0.069008 -29.241863 0.690200
				CHANNELS 3 Xrotation Yrotation Zrotation
				JOINT LeftFoot
				{
					OFFSET -0.069008 -29.568123 -0.266800
					CHANNELS 3 Xrotation Yrotation Zrotation
					JOINT LeftToeBase
					{
						OFFSET 3.145500 -8.631000 16.059900
						CHANNELS 3 Xrotation Yrotation Zrotation
						End Site
						{
							OFFSET 0.000000 18.501587 0.000000
						}
					}
				}
			}
			JOINT Left_ShortSleeve
			{
				OFFSET 0.265923 -10.480953 1.153800
				CHANNELS 3 Xrotation Yrotation Zrotation
				End Site
				{
					OFFSET 1.725763 19.823879 0.000000
				}
			}
		}
		JOINT RightUpLeg
		{
			OFFSET -6.797100 -2.508499 -1.318700
			CHANNELS 3 Xrotation Yrotation Zrotation
			JOINT RightLeg
			{
				OFFSET -0.082453 -29.241932 0.688000
				CHANNELS 3 Xrotation Yrotation Zrotation
				JOINT RightFoot
				{
					OFFSET 0.082453 -29.568058 -0.264600
					CHANNELS 3 Xrotation Yrotation Zrotation
					JOINT RightToeBase
					{
						OFFSET -3.115300 -8.682800 16.113400
						CHANNELS 3 Xrotation Yrotation Zrotation
						End Site
						{
							OFFSET 0.000000 18.567114 0.000000
						}
					}
				}
			}
			JOINT Right_ShortSleeve
			{
				OFFSET -0.265923 -10.480953 1.153800
				CHANNELS 3 Xrotation Yrotation Zrotation
				End Site
				{
					OFFSET -1.725766 19.823910 0.000000
				}
			}
		}
	}
	JOINT Spine
	{
		OFFSET 0.000000 13.368103 0.470500
		CHANNELS 3 Xrotation Yrotation Zrotation
		JOINT Spine1
		{
			OFFSET 0.147000 13.837402 0.538800
			CHANNELS 3 Xrotation Yrotation Zrotation
			JOINT Spine2
			{
				OFFSET 0.168000 16.242897 -1.435500
				CHANNELS 3 Xrotation Yrotation Zrotation
				JOINT Neck
				{
					OFFSET 0.217200 18.631500 -1.679100
					CHANNELS 3 Xrotation Yrotation Zrotation
					JOINT Head
					{
						OFFSET 0.000000 6.599396 1.385900
						CHANNELS 3 Xrotation Yrotation Zrotation
						JOINT Hat
						{
							OFFSET -0.532200 27.220596 -10.096100
							CHANNELS 3 Xrotation Yrotation Zrotation
							End Site
							{
								OFFSET 0.000000 22.029861 0.000000
							}
						}
						JOINT HairD
						{
							OFFSET -10.777400 17.437393 -1.325900
							CHANNELS 3 Xrotation Yrotation Zrotation
							JOINT HairD1
							{
								OFFSET -3.290299 -11.051193 1.062200
								CHANNELS 3 Xrotation Yrotation Zrotation
								End Site
								{
									OFFSET 0.000000 11.579437 0.000000
								}
							}
						}
						JOINT HairB
						{
							OFFSET -10.777400 17.437393 1.467900
							CHANNELS 3 Xrotation Yrotation Zrotation
							JOINT HairB1
							{
								OFFSET -1.561200 -12.956299 3.590200
								CHANNELS 3 Xrotation Yrotation Zrotation
								End Site
								{
									OFFSET 0.000000 13.534866 0.000000
								}
							}
						}
						JOINT HairA
						{
							OFFSET 9.713100 17.437393 1.467900
							CHANNELS 3 Xrotation Yrotation Zrotation
							JOINT HairA1
							{
								OFFSET 1.561200 -12.956299 3.590200
								CHANNELS 3 Xrotation Yrotation Zrotation
								End Site
								{
									OFFSET 0.000000 13.534866 0.000000
								}
							}
						}
						JOINT HairC
						{
							OFFSET 9.713100 17.437393 -1.325900
							CHANNELS 3 Xrotation Yrotation Zrotation
							JOINT HairC1
							{
								OFFSET 3.290300 -11.051193 1.062200
								CHANNELS 3 Xrotation Yrotation Zrotation
								End Site
								{
									OFFSET 0.000000 11.579437 0.000000
								}
							}
						}
					}
				}
				JOINT LeftShoulder
				{
					OFFSET 5.101800 15.108002 -2.763700
					CHANNELS 3 Xrotation Yrotation Zrotation
					JOINT LeftArm
					{
						OFFSET 9.825497 2.506317 -1.597400
						CHANNELS 3 Xrotation Yrotation Zrotation
						JOINT LeftForeArm
						{
							OFFSET 21.966244 0.000000 0.000000
							CHANNELS 3 Xrotation Yrotation Zrotation
							JOINT LeftHand
							{
								OFFSET 33.879036 0.000000 0.000000
								CHANNELS 3 Xrotation Yrotation Zrotation
								JOINT LeftHandThumb1
								{
									OFFSET 6.715286 -2.359680 3.363841
									CHANNELS 3 Xrotation Yrotation Zrotation
									JOINT LeftHandThumb2
									{
										OFFSET 2.507072 -1.447464 1.447461
										CHANNELS 3 Xrotation Yrotation Zrotation
										JOINT LeftHandThumb3
										{
											OFFSET 2.898338 -1.673355 1.673357
											CHANNELS 3 Xrotation Yrotation Zrotation
											End Site
											{
												OFFSET -0.295959 3.727692 -0.131651
											}
										}
									}
								}
								JOINT LeftHandIndex1
								{
									OFFSET 14.190811 -0.254547 3.840278
									CHANNELS 3 Xrotation Yrotation Zrotation
									JOINT LeftHandIndex2
									{
										OFFSET 3.551727 0.000000 -0.000000
										CHANNELS 3 Xrotation Yrotation Zrotation
										JOINT LeftHandIndex3
										{
											OFFSET 2.894196 0.000000 0.000000
											CHANNELS 3 Xrotation Yrotation Zrotation
											End Site
											{
												OFFSET -1.000603 2.690872 0.366626
											}
										}
									}
								}
								JOINT LeftHandMiddle1
								{
									OFFSET 13.776489 0.000000 0.000000
									CHANNELS 3 Xrotation Yrotation Zrotation
									JOINT LeftHandMiddle2
									{
										OFFSET 3.438232 0.000000 0.000000
										CHANNELS 3 Xrotation Yrotation Zrotation
										JOINT LeftHandMiddle3
										{
											OFFSET 3.691551 0.000000 0.000000
											CHANNELS 3 Xrotation Yrotation Zrotation
											End Site
											{
												OFFSET -1.082298 3.499527 0.457670
											}
										}
									}
								}
								JOINT LeftHandRing1
								{
									OFFSET 13.966164 -0.268127 -3.067488
									CHANNELS 3 Xrotation Yrotation Zrotation
									JOINT LeftHandRing2
									{
										OFFSET 3.162567 0.000000 0.000000
										CHANNELS 3 Xrotation Yrotation Zrotation
										JOINT LeftHandRing3
										{
											OFFSET 3.324348 0.000000 0.000000
											CHANNELS 3 Xrotation Yrotation Zrotation
											End Site
											{
												OFFSET -0.861900 3.184998 0.405154
											}
										}
									}
								}
								JOINT LeftHandPinky1
								{
									OFFSET 13.131393 -0.168503 -5.746925
									CHANNELS 3 Xrotation Yrotation Zrotation
									JOINT LeftHandPinky2
									{
										OFFSET 2.849182 0.000000 0.000000
										CHANNELS 3 Xrotation Yrotation Zrotation
										JOINT LeftHandPinky3
										{
											OFFSET 2.805038 0.000000 0.000000
											CHANNELS 3 Xrotation Yrotation Zrotation
											End Site
											{
												OFFSET -0.882500 2.642609 0.325652
											}
										}
									}
								}
							}
							JOINT Left_Sleeve
							{
								OFFSET 6.592125 -0.646545 0.805568
								CHANNELS 3 Xrotation Yrotation Zrotation
								End Site
								{
									OFFSET -0.000179 20.275787 -0.000000
								}
							}
						}
					}
				}
				JOINT RightShoulder
				{
					OFFSET -5.731700 15.108002 -2.763700
					CHANNELS 3 Xrotation Yrotation Zrotation
					JOINT RightArm
					{
						OFFSET -9.825497 2.506317 -1.597400
						CHANNELS 3 Xrotation Yrotation Zrotation
						JOINT RightForeArm
						{
							OFFSET -21.966242 0.000000 0.000000
							CHANNELS 3 Xrotation Yrotation Zrotation
							JOINT RightHand
							{
								OFFSET -33.879032 0.000000 0.000000
								CHANNELS 3 Xrotation Yrotation Zrotation
								JOINT RightHandThumb1
								{
									OFFSET -6.715286 -2.359680 3.363841
									CHANNELS 3 Xrotation Yrotation Zrotation
									JOINT RightHandThumb2
									{
										OFFSET -2.507072 -1.447464 1.447461
										CHANNELS 3 Xrotation Yrotation Zrotation
										JOINT RightHandThumb3
										{
											OFFSET -2.898338 -1.673355 1.673357
											CHANNELS 3 Xrotation Yrotation Zrotation
											End Site
											{
												OFFSET 0.295959 3.727692 -0.131651
											}
										}
									}
								}
								JOINT RightHandIndex1
								{
									OFFSET -14.190811 -0.254547 3.840278
									CHANNELS 3 Xrotation Yrotation Zrotation
									JOINT RightHandIndex2
									{
										OFFSET -3.551727 0.000000 -0.000000
										CHANNELS 3 Xrotation Yrotation Zrotation
										JOINT RightHandIndex3
										{
											OFFSET -2.894196 0.000000 0.000000
											CHANNELS 3 Xrotation Yrotation Zrotation
											End Site
											{
												OFFSET 1.000603 2.690872 0.366626
											}
										}
									}
								}
								JOINT RightHandMiddle1
								{
									OFFSET -13.776489 0.000000 0.000000
									CHANNELS 3 Xrotation Yrotation Zrotation
									JOINT RightHandMiddle2
									{
										OFFSET -3.438232 0.000000 0.000000
										CHANNELS 3 Xrotation Yrotation Zrotation
										JOINT RightHandMiddle3
										{
											OFFSET -3.691551 0.000000 0.000000
											CHANNELS 3 Xrotation Yrotation Zrotation
											End Site
											{
												OFFSET 1.082298 3.499527 0.457670
											}
										}
									}
								}
								JOINT RightHandRing1
								{
									OFFSET -13.966164 -0.268127 -3.067488
									CHANNELS 3 Xrotation Yrotation Zrotation
									JOINT RightHandRing2
									{
										OFFSET -3.162567 0.000000 0.000000
										CHANNELS 3 Xrotation Yrotation Zrotation
										JOINT RightHandRing3
										{
											OFFSET -3.324348 0.000000 0.000000
											CHANNELS 3 Xrotation Yrotation Zrotation
											End Site
											{
												OFFSET 0.861900 3.184998 0.405154
											}
										}
									}
								}
								JOINT RightHandPinky1
								{
									OFFSET -13.131393 -0.168503 -5.746925
									CHANNELS 3 Xrotation Yrotation Zrotation
									JOINT RightHandPinky2
									{
										OFFSET -2.849182 0.000000 0.000000
										CHANNELS 3 Xrotation Yrotation Zrotation
										JOINT RightHandPinky3
										{
											OFFSET -2.805038 0.000000 0.000000
											CHANNELS 3 Xrotation Yrotation Zrotation
											End Site
											{
												OFFSET 0.882500 2.642609 0.325652
											}
										}
									}
								}
							}
							JOINT Right_Sleeve
							{
								OFFSET -6.592125 -0.646545 0.805568
								CHANNELS 3 Xrotation Yrotation Zrotation
								End Site
								{
									OFFSET 0.000179 20.275787 -0.000000
								}
							}
						}
					}
				}
				JOINT Bind_Right_JacketString
				{
					OFFSET -3.534800 11.969597 7.200700
					CHANNELS 3 Xrotation Yrotation Zrotation
					JOINT Bind_Right_JacketString1
					{
						OFFSET -0.319900 -6.102600 2.794100
						CHANNELS 3 Xrotation Yrotation Zrotation
						End Site
						{
							OFFSET 0.000000 6.719452 0.000000
						}
					}
				}
				JOINT Bind_Left_JacketString
				{
					OFFSET 2.904800 11.969597 7.200700
					CHANNELS 3 Xrotation Yrotation Zrotation
					JOINT Bind_Left_JacketString1
					{
						OFFSET 0.364800 -5.904503 3.186800
						CHANNELS 3 Xrotation Yrotation Zrotation
						End Site
						{
							OFFSET 0.000000 6.719513 0.000000
						}
					}
				}
				JOINT HairE
				{
					OFFSET 5.915200 17.612701 -11.592200
					CHANNELS 3 Xrotation Yrotation Zrotation
					JOINT HairE1
					{
						OFFSET 0.289200 -7.171898 -1.284500
						CHANNELS 3 Xrotation Yrotation Zrotation
						End Site
						{
							OFFSET 0.000000 7.291756 0.000000
						}
					}
				}
				JOINT HairF
				{
					OFFSET -0.864800 17.612701 -11.592200
					CHANNELS 3 Xrotation Yrotation Zrotation
					JOINT HairF1
					{
						OFFSET 0.000000 -14.087097 -2.127501
						CHANNELS 3 Xrotation Yrotation Zrotation
						End Site
						{
							OFFSET 0.000000 14.246841 0.000000
						}
					}
				}
				JOINT HairG
				{
					OFFSET -8.087700 17.612701 -11.592200
					CHANNELS 3 Xrotation Yrotation Zrotation
					JOINT HairG1
					{
						OFFSET -0.293600 -6.081398 -0.910100
						CHANNELS 3 Xrotation Yrotation Zrotation
						End Site
						{
							OFFSET 0.000000 6.156120 0.000000
						}
					}
				}
			}
		}
	}
	JOINT Pouch
	{
		OFFSET 0.000000 4.394501 10.847300
		CHANNELS 3 Xrotation Yrotation Zrotation
		End Site
		{
			OFFSET 0.000000 21.880577 0.000000
		}
	}
	JOINT Bag
	{
		OFFSET -13.229000 4.813004 -0.593300
		CHANNELS 3 Xrotation Yrotation Zrotation
		End Site
		{
			OFFSET 0.000000 21.880577 0.000000
		}
	}
	JOINT OccupyGuyFacialAnim_Joint
	{
		OFFSET 1.000000 -70.206398 -1.655000
		CHANNELS 3 Xrotation Yrotation Zrotation
		End Site
		{
			OFFSET 0.000000 21.880577 0.000000
		}
	}
}
MOTION
Frames: 4
Frame Time: 0.033333
-0.966131 67.983337 0.788946 2.595382 -54.031601 -4.084588 -0.000000 0.000002 -0.000000 -29.702047 9.534162 21.708786 27.462879 9.926766 0.398912 1.843129 6.136629 -9.256020 -0.000000 -0.000002 -0.000000 -0.000002 -0.000003 -0.000001 -11.474601 -13.861149 -9.744334 19.598984 8.662344 -1.011443 -7.657486 -10.774890 13.045476 0.000000 -0.000000 0.000000 0.000001 0.000000 -0.000000 2.559003 6.752893 2.436292 2.701727 7.877988 -0.409619 2.790722 7.864878 -0.593072 12.118107 6.829904 -4.433337 -0.737344 20.027404 8.229668 0.000000 0.000000 -0.000001 0.000000 0.000000 -0.000001 0.000000 0.000000 -0.000000 0.000000 0.000000 -0.000000 -0.000002 0.000000 -0.000000 0.000000 0.000000 -0.000000 -0.000002 0.000000 -0.000000 0.000000 0.000000 -0.000001 0.000000 0.000000 -0.000001 3.544253 4.756001 -11.623017 -54.038845 -33.116432 -50.381552 0.000075 -81.882377 0.000047 -58.768368 25.992633 38.870337 -14.557491 10.837944 12.229939 0.749544 -4.257836 13.305493 0.000000 -0.000000 -0.000001 -0.809539 2.578178 -31.496441 3.095875 5.163754 -61.866979 0.000001 -0.000000 -0.000000 -2.430865 1.729234 -41.460946 2.952365 5.084717 -60.259945 0.000001 0.000000 0.000001 -6.054143 -0.166610 -49.857584 3.046240 5.137042 -61.313952 0.000001 -0.000000 0.000001 -8.298319 -6.522654 -38.520150 2.848781 5.024367 -59.084408 -0.000000 -0.000000 0.000001 0.000000 0.000001 0.000002 -14.733698 2.115969 -4.463091 72.337536 138.834031 -52.653508 0.000007 29.080719 0.000002 -49.752447 -7.371270 -31.498759 8.377143 -4.904149 11.022013 21.620199 -18.183902 -18.379207 -0.000002 -0.000001 -0.000002 0.558947 -4.406610 25.436664 1.653036 -3.560316 49.799097 -0.000001 -0.000001 0.000000 10.969834 -12.875591 52.800822 6.387584 -4.324397 111.833686 -0.000001 0.000000 -0.000004 3.705078 -7.151321 57.622447 5.328214 -4.608683 98.293450 -0.000000 -0.000001 -0.000001 0.474834 -5.173007 58.987672 3.194314 -4.421942 71.674161 -0.000000 0.000000 0.000002 0.000000 0.000000 0.000001 0.000000 -0.000002 0.000000 0.000001 -0.000000 0.000000 0.000000 -0.000002 0.000000 0.000000 -0.000002 0.000000 0.000000 -0.000002 0.000000 0.000001 -0.000000 -0.000000 0.000000 -0.000002 0.000000 0.000000 -0.000002 0.000000 0.000000 -0.000002 0.000000 0.000001 -0.000000 -0.000000 -0.000000 0.000002 -0.000000 -0.000000 0.000002 -0.000000 -0.000000 0.000002 -0.000000 
-0.960315 67.939491 0.774735 2.575108 -54.053543 -4.130109 0.000000 0.000001 -0.000000 -29.884898 9.508383 21.799768 27.780239 9.848715 0.399747 1.714604 6.172324 -9.283200 0.000000 0.000000 -0.000000 -0.000002 0.000001 0.000001 -11.685077 -13.838635 -9.775946 20.009236 8.672774 -0.992677 -7.862494 -10.757347 12.988256 -0.000000 -0.000000 -0.000000 0.000000 0.000000 0.000000 2.575030 6.751954 2.470639 2.708031 7.875266 -0.411111 2.796496 7.862920 -0.596823 12.081724 6.819743 -4.422990 -0.747506 19.967174 8.261103 -0.000000 0.000000 -0.000000 -0.000000 0.000000 -0.000000 -0.000000 0.000000 0.000000 -0.000000 0.000000 -0.000001 -0.000000 -0.000001 -0.000001 -0.000000 0.000000 -0.000001 -0.000000 -0.000001 -0.000001 -0.000000 0.000000 -0.000000 -0.000000 0.000000 -0.000000 3.580617 4.745367 -11.737574 -54.132313 -33.018224 -50.415822 0.000064 -81.969729 0.000062 -58.749128 26.309626 38.902609 -14.557488 10.837942 12.229938 0.749541 -4.257834 13.305492 -0.000001 -0.000001 -0.000001 -0.809538 2.578178 -31.496441 3.095874 5.163753 -61.866972 0.000001 -0.000001 0.000001 -2.430865 1.729233 -41.460946 2.952368 5.084720 -60.259952 0.000000 -0.000001 0.000000 -6.054142 -0.166609 -49.857584 3.046237 5.137045 -61.313952 -0.000000 0.000001 0.000004 -8.298312 -6.522651 -38.520156 2.848782 5.024368 -59.084415 0.000001 -0.000003 0.000002 0.000000 -0.000001 -0.000000 -14.726077 2.162513 -4.454832 72.443049 138.952057 -52.684572 0.000018 29.105222 -0.000010 -49.715222 -7.552530 -31.537009 8.377146 -4.904148 11.022015 21.620197 -18.183898 -18.379207 -0.000003 -0.000001 -0.000000 0.558948 -4.406609 25.436668 1.653036 -3.560314 49.799100 -0.000000 0.000000 -0.000001 10.969835 -12.875590 52.800829 6.387585 -4.324397 111.833693 0.000001 -0.000000 0.000001 3.705080 -7.151320 57.622461 5.328213 -4.608683 98.293444 -0.000000 -0.000000 -0.000002 0.474835 -5.173006 58.987672 3.194316 -4.421943 71.674161 0.000000 0.000000 0.000002 0.000001 0.000003 0.000001 0.000001 -0.000000 0.000000 0.000001 -0.000003 0.000001 0.000001 -0.000000 -0.000000 0.000001 -0.000000 -0.000000 0.000001 -0.000000 0.000000 0.000001 -0.000003 0.000001 0.000001 -0.000000 -0.000000 0.000001 -0.000000 -0.000000 0.000001 -0.000000 0.000000 0.000001 -0.000003 0.000001 0.000000 0.000001 -0.000000 0.000000 0.000001 -0.000000 0.000000 0.000001 -0.000000 
-0.951852 67.903793 0.758276 2.548330 -54.051033 -4.164681 -0.000000 -0.000001 0.000000 -30.028804 9.501713 21.867711 28.016662 9.762868 0.388216 1.625296 6.196961 -9.288109 0.000000 -0.000000 -0.000000 0.000003 -0.000001 -0.000001 -11.865854 -13.824138 -9.813395 20.371548 8.681316 -0.981563 -8.044303 -10.758063 12.937954 0.000000 0.000002 -0.000000 0.000001 0.000001 -0.000000 2.602270 6.739785 2.489652 2.722043 7.864474 -0.416963 2.810031 7.853251 -0.605131 12.044590 6.803280 -4.419923 -0.763926 19.873339 8.269163 0.000001 -0.000000 0.000001 0.000001 -0.000000 0.000001 0.000001 -0.000000 0.000001 0.000001 -0.000000 0.000000 -0.000001 -0.000000 0.000000 0.000001 -0.000000 0.000000 -0.000001 -0.000000 0.000000 0.000001 -0.000000 0.000001 0.000001 -0.000000 0.000001 3.613286 4.776880 -11.858401 -54.250000 -33.003720 -50.478021 0.000541 -82.011891 0.000559 -58.717620 26.639003 38.923636 -14.557491 10.837944 12.229936 0.749546 -4.257835 13.305492 0.000001 0.000001 -0.000000 -0.809538 2.578176 -31.496441 3.095875 5.163754 -61.866979 0.000002 -0.000001 -0.000002 -2.430866 1.729233 -41.460949 2.952366 5.084718 -60.259945 0.000002 -0.000001 -0.000003 -6.054144 -0.166609 -49.857581 3.046236 5.137045 -61.313952 -0.000002 -0.000001 -0.000005 -8.298318 -6.522652 -38.520156 2.848781 5.024366 -59.084408 -0.000000 0.000000 -0.000001 0.000003 -0.000000 0.000001 -14.719300 2.200104 -4.431845 72.559763 139.025413 -52.735324 -0.000013 29.172066 0.000006 -49.747283 -7.720798 -31.596175 8.377141 -4.904149 11.022015 21.620197 -18.183902 -18.379207 0.000002 -0.000001 0.000002 0.558947 -4.406609 25.436668 1.653036 -3.560314 49.799097 -0.000000 0.000001 -0.000001 10.969833 -12.875588 52.800829 6.387585 -4.324396 111.833679 0.000000 -0.000001 0.000001 3.705079 -7.151319 57.622454 5.328212 -4.608682 98.293444 0.000000 -0.000000 -0.000000 0.474834 -5.173006 58.987672 3.194313 -4.421942 71.674161 -0.000000 0.000000 -0.000001 0.000001 0.000001 0.000003 0.000000 -0.000001 -0.000000 0.000001 0.000000 -0.000000 0.000000 -0.000001 -0.000000 0.000000 -0.000001 -0.000000 0.000000 -0.000001 -0.000000 0.000001 0.000000 -0.000000 0.000000 -0.000001 -0.000000 0.000000 -0.000001 -0.000000 0.000000 -0.000001 -0.000000 0.000001 0.000000 -0.000000 -0.000000 -0.000001 0.000000 -0.000000 -0.000001 0.000000 -0.000000 -0.000001 0.000000 
-0.941927 67.875916 0.741232 2.530600 -54.026229 -4.191566 -0.000000 -0.000002 0.000001 -30.144302 9.483468 21.910637 28.186266 9.692827 0.385043 1.570385 6.213302 -9.289172 0.000000 0.000002 -0.000000 -0.000001 -0.000001 -0.000000 -12.007845 -13.805218 -9.831140 20.660902 8.688014 -0.980591 -8.177123 -10.800685 12.886191 0.000000 -0.000000 0.000000 -0.000001 -0.000002 -0.000001 2.623989 6.722559 2.506655 2.731835 7.850026 -0.418985 2.819359 7.839878 -0.609341 12.013626 6.788731 -4.416020 -0.741424 19.800508 8.251577 -0.000002 0.000000 0.000000 -0.000002 0.000000 0.000000 -0.000002 0.000000 0.000001 -0.000002 0.000000 0.000000 -0.000003 0.000000 0.000000 -0.000002 0.000000 0.000000 -0.000003 0.000000 0.000000 -0.000002 0.000000 0.000000 -0.000002 0.000000 0.000000 3.648659 4.826639 -11.995815 -54.373886 -33.054079 -50.576752 0.000302 -82.008312 0.000310 -58.698065 26.949691 38.943512 -14.557490 10.837942 12.229938 0.749541 -4.257837 13.305493 -0.000001 -0.000001 -0.000001 -0.809535 2.578177 -31.496444 3.095872 5.163754 -61.866972 0.000001 0.000000 -0.000000 -2.430864 1.729232 -41.460939 2.952365 5.084718 -60.259952 0.000001 -0.000001 -0.000003 -6.054142 -0.166609 -49.857581 3.046239 5.137045 -61.313952 -0.000002 0.000000 -0.000004 -8.298314 -6.522652 -38.520150 2.848783 5.024364 -59.084408 -0.000000 -0.000000 0.000001 0.000002 -0.000001 0.000002 -14.706562 2.220165 -4.366782 72.689100 139.035823 -52.794097 -0.000011 29.273211 -0.000011 -49.792492 -7.924223 -31.665761 8.377144 -4.904149 11.022014 21.620201 -18.183902 -18.379207 0.000001 -0.000001 -0.000001 0.558949 -4.406610 25.436666 1.653037 -3.560316 49.799097 -0.000000 0.000000 0.000000 10.969836 -12.875591 52.800825 6.387585 -4.324397 111.833686 0.000001 0.000000 -0.000004 3.705079 -7.151321 57.622454 5.328213 -4.608682 98.293437 0.000001 -0.000000 0.000002 0.474834 -5.173007 58.987672 3.194314 -4.421942 71.674161 -0.000000 0.000000 -0.000001 -0.000000 -0.000000 -0.000000 0.000000 0.000001 -0.000000 0.000001 0.000003 -0.000001 0.000000 0.000001 -0.000000 0.000000 0.000001 -0.000000 0.000000 0.000001 -0.000000 0.000001 0.000003 -0.000001 0.000000 0.000001 -0.000000 0.000000 0.000001 -0.000000 0.000000 0.000001 -0.000000 0.000001 0.000003 -0.000001 -0.000000 -0.000002 0.000001 -0.000000 -0.000002 0.000001 -0.000000 -0.000002 0.000001 
